<?xml version="1.0" standalone="no"?>
<!DOCTYPE svg PUBLIC "-//W3C//DTD SVG 20010904//EN"
 "http://www.w3.org/TR/2001/REC-SVG-20010904/DTD/svg10.dtd">
<svg version="1.0" xmlns="http://www.w3.org/2000/svg"
 width="200pt" height="200pt" viewBox="0 0 1024.000000 1024.000000"
 preserveAspectRatio="xMidYMid meet">

<g transform="translate(0.000000,1024.000000) scale(0.100000,-0.100000)"
fill="#0378ce" stroke="none">
<path d="M3260 8969 c-271 -33 -414 -149 -487 -394 -17 -57 -18 -200 -21
-2755 l-2 -2696 27 -54 c80 -158 309 -151 378 12 12 30 15 85 15 294 l0 257
68 -6 c37 -4 129 -9 205 -13 l137 -7 0 -626 c0 -703 -2 -675 74 -738 63 -52
131 -64 207 -38 54 19 96 58 120 110 17 38 19 78 19 668 l0 627 204 0 204 0 4
-133 c3 -126 5 -136 31 -175 66 -101 222 -120 314 -39 59 52 73 94 73 229 l0
117 33 5 c17 3 98 7 180 8 l147 3 0 -462 c0 -303 4 -480 11 -514 16 -73 84
-142 155 -157 115 -25 223 39 254 149 6 20 10 241 10 537 0 394 3 503 13 506
176 46 342 102 460 154 4 2 7 -489 7 -1090 l0 -1094 25 -51 c37 -73 89 -106
175 -111 97 -6 161 31 204 115 14 29 16 150 16 1274 l0 1241 99 102 c100 101
207 230 252 303 l24 38 5 -315 c5 -311 5 -316 29 -357 86 -150 293 -140 377
17 18 34 19 86 22 1255 3 1232 -1 1451 -34 1702 -93 721 -382 1286 -850 1663
-320 257 -614 367 -1144 426 -122 14 -292 17 -1055 20 -503 1 -944 -2 -985 -7z
m1010 -1144 c0 -253 2 -301 16 -328 81 -159 300 -162 379 -4 l25 51 0 288 0
288 38 0 c136 0 420 -40 581 -81 200 -52 345 -132 480 -268 234 -236 358 -525
418 -971 25 -191 25 -756 0 -943 -57 -422 -164 -709 -353 -952 -174 -224 -363
-339 -657 -399 -123 -26 -375 -36 -889 -36 l-478 0 0 1825 0 1825 220 0 220 0
0 -295z"/>
<path d="M7020 3458 c-25 -14 -58 -44 -75 -67 -27 -38 -30 -52 -34 -133 -4
-111 13 -163 71 -212 106 -91 266 -58 327 67 32 66 30 186 -5 256 -37 73 -86
104 -173 109 -55 3 -74 -1 -111 -20z"/>
<path d="M4528 2880 c-49 -26 -94 -83 -107 -136 -13 -52 -14 -472 -1 -528 43
-189 301 -224 393 -53 21 40 22 56 25 282 2 152 0 259 -7 291 -14 60 -57 117
-112 144 -51 26 -141 26 -191 0z"/>
<path d="M2865 2626 c-43 -19 -102 -88 -115 -135 -7 -27 -10 -233 -8 -643 3
-542 5 -606 20 -634 49 -89 141 -133 237 -113 44 9 63 20 101 59 39 38 50 57
59 102 8 38 11 230 9 639 -3 548 -4 586 -22 619 -44 83 -105 120 -193 120 -32
-1 -71 -7 -88 -14z"/>
<path d="M7031 2604 c-64 -32 -97 -79 -112 -158 -6 -37 -9 -168 -7 -345 3
-270 4 -288 25 -326 41 -77 105 -115 193 -115 89 0 177 65 199 147 16 56 14
624 -1 677 -16 53 -81 118 -134 134 -62 18 -105 15 -163 -14z"/>
<path d="M5303 2115 c-32 -16 -62 -41 -79 -67 -29 -41 -29 -42 -32 -222 -2
-112 1 -195 8 -218 24 -82 103 -137 197 -138 65 0 99 13 142 53 62 59 71 92
71 272 0 181 -8 220 -53 272 -65 74 -163 93 -254 48z"/>
</g>
</svg>
